<svg width="726" height="375" viewBox="0 0 726 375" fill="none" xmlns="http://www.w3.org/2000/svg">
<rect width="726" height="375" fill="#DBEAFE"/>
<g clip-path="url(#clip0_0_1)">
<path d="M669.842 181.078H81.1358C73.2448 181.078 66.8251 176.015 66.8251 169.791V11.287C66.8251 5.06331 73.2448 0 81.1358 0H669.842C677.733 0 684.153 5.06331 684.153 11.287V169.791C684.153 176.015 677.733 181.078 669.842 181.078ZM81.1358 1.34566C74.1858 1.34566 68.5312 5.80547 68.5312 11.287V169.791C68.5312 175.272 74.1858 179.732 81.1358 179.732H669.842C676.792 179.732 682.446 175.272 682.446 169.791V11.287C682.446 5.80547 676.792 1.34566 669.842 1.34566H81.1358Z" fill="#60A5FA"/>
<path d="M726 370.432H0V371.564H726V370.432Z" fill="#60A5FA"/>
<path d="M726 312.568H0V313.701H726V312.568Z" fill="#60A5FA"/>
<path d="M330.859 186.907C331.38 192.074 335.183 196.051 339.352 195.789C343.522 195.526 346.478 191.125 345.956 185.956C345.783 183.889 344.985 181.885 343.629 180.111L341.069 158.239L328.081 159.405L331.983 180.843C331 182.765 330.614 184.844 330.859 186.907Z" fill="#FFB6B6"/>
<path d="M315.343 84.8663C315.343 84.8663 327.484 79.7972 333.64 87.3723C339.797 94.9473 344.046 176.873 344.046 176.873L326.982 178.31L323.748 120.579L315.343 84.8663Z" fill="#60A5FA"/>
<path d="M290.144 308.294L300.029 308.293L304.732 278.221L290.142 278.222L290.144 308.294Z" fill="#FFB6B6"/>
<path d="M324.011 308.117C324.319 308.526 324.482 309.845 324.482 310.321C324.482 311.782 322.98 312.967 321.127 312.967H290.514C289.25 312.967 288.225 312.159 288.225 311.162V310.157C288.225 310.157 286.711 307.135 289.829 303.412C289.829 303.412 293.704 306.327 299.494 301.761L301.202 299.321L313.562 306.45L320.413 307.115C321.911 307.261 323.24 307.093 324.011 308.117Z" fill="#2F2E41"/>
<path d="M347.347 307.003L356.924 305.073L352.044 275.019L337.908 277.867L347.347 307.003Z" fill="#FFB6B6"/>
<path d="M380.105 300.221C380.532 300.557 381.103 301.803 381.252 302.264C381.711 303.68 380.627 305.121 378.832 305.483L349.172 311.459C347.947 311.705 346.701 311.122 346.388 310.156L346.072 309.182C346.072 309.182 343.657 306.551 345.509 302.334C345.509 302.334 350.179 304.403 354.356 298.848L355.245 296.151L369.457 300.646L376.304 299.953C377.802 299.801 379.037 299.379 380.105 300.221Z" fill="#2F2E41"/>
<path d="M281.966 78.4017L281.498 75.7191L287.068 64.9889L302.374 63.6476L305.678 79.0094L281.966 78.4017Z" fill="#FFB6B6"/>
<path opacity="0.1" d="M281.966 78.4017L281.498 75.7191L287.068 64.9889L302.374 63.6476L305.678 79.0094L281.966 78.4017Z" fill="black"/>
<path d="M264.11 154.184L257.307 168.938L262.409 176.986L287.918 293.678H304.878L301.523 190.399L340.637 293.678H357.423L343.925 223.931L333.835 159.549L327.715 156.568L298.122 143.454L264.11 154.184Z" fill="#2F2E41"/>
<path d="M307.475 164.244L297.272 165.585L283.667 140.101H314.278L307.475 164.244Z" fill="#60A5FA"/>
<path d="M327.883 157.538L307.475 164.244L300.673 152.172L297.272 165.585L261.559 156.518L266.661 140.101L261.559 86.4494L279.568 76.9799L281.966 75.7191L304.074 77.0604L306.013 77.892L319.38 83.7669L322.781 128.029L327.883 157.538Z" fill="#2F2E41"/>
<path d="M306.013 77.892L296.421 109.922L279.568 76.9799L281.966 75.7191L304.074 77.0604L306.013 77.892Z" fill="#60A5FA"/>
<path d="M289.619 75.7191L286.218 80.3391L289.619 81.8791L287.918 110.005L294.721 117.299L301.523 106.519L296.421 81.8791L298.122 75.7191H289.619Z" fill="#2F2E41"/>
<path d="M294.721 73.0366C303.643 73.0366 310.877 67.3317 310.877 60.2944C310.877 53.257 303.643 47.5522 294.721 47.5522C285.798 47.5522 278.565 53.257 278.565 60.2944C278.565 67.3317 285.798 73.0366 294.721 73.0366Z" fill="#FFB6B6"/>
<path d="M284.396 61.4121L287.887 62.6137L289.41 55.4043C289.41 55.4043 295.504 53.0011 300.075 54.2027C304.645 55.4043 312.262 54.2027 312.262 54.2027C312.262 54.2027 312.262 42.187 301.598 42.187C290.934 42.187 280.27 43.3886 280.27 46.9933C280.27 50.598 275.699 54.2027 275.699 54.2027C275.699 54.2027 269.605 61.4121 275.699 66.2184C281.793 71.0246 284.84 71.0246 284.84 71.0246L284.396 61.4121Z" fill="#2F2E41"/>
<path d="M253.048 186.53C252.871 191.712 256.117 195.984 260.298 196.073C264.48 196.161 268.011 192.032 268.188 186.849C268.294 184.779 267.771 182.719 266.661 180.842L267.06 158.879L253.988 158.951L254.983 180.594C253.746 182.423 253.083 184.458 253.048 186.53Z" fill="#FFB6B6"/>
<path d="M269.22 83.7417C269.22 83.7417 258.166 81.0591 253.064 89.1068C247.962 97.1545 254.765 178.973 254.765 178.973H271.925L267.371 121.298L269.22 83.7417Z" fill="#60A5FA"/>
<path d="M693.262 236.169L652.039 226.216C651.127 225.996 650.171 225.916 649.221 225.98L440.3 240.003C437.321 240.203 436.572 243.372 439.26 244.405L445.952 246.976H445.774V370.072H452.079V249.331L473.053 257.389C474.658 258.006 476.449 258.258 478.225 258.116L480.456 257.938V370.072H486.762V257.436L648.352 244.563V370.072H654.658V244.06L681.459 241.925V370.072H687.765V241.423L692.654 241.033C696.086 240.76 696.56 236.965 693.262 236.169Z" fill="#3F3D56"/>
<path d="M500.951 239.516C504.892 239.516 563.222 233.92 563.222 233.92L571.893 243.246L511.198 252.571L500.951 239.516Z" fill="white"/>
<path d="M564.969 365.291L554.835 365.276L550.081 334.44L565.038 334.461L564.969 365.291Z" fill="#A0616A"/>
<path d="M530.249 365.063C529.932 365.481 529.763 366.834 529.762 367.321C529.758 368.82 531.296 370.036 533.195 370.039L564.579 370.081C565.875 370.083 566.927 369.256 566.93 368.234L566.932 367.203C566.932 367.203 568.491 364.108 565.303 360.286C565.303 360.286 561.324 363.27 555.398 358.58L553.653 356.076L540.965 363.368L533.94 364.041C532.403 364.188 531.041 364.014 530.249 365.063Z" fill="#2F2E41"/>
<path d="M619.359 350.951L611.364 355.708L584.296 333.648L596.097 326.628L619.359 350.951Z" fill="#A0616A"/>
<path d="M591.83 367.106C591.897 367.585 592.787 368.731 593.155 369.115C594.285 370.297 596.417 370.533 597.915 369.641L622.676 354.909C623.698 354.301 623.902 353.154 623.13 352.348L622.353 351.535C622.353 351.535 621.24 348.362 615.838 346.851C615.838 346.851 614.959 351.074 606.743 350.167L603.474 349.015L598.993 360.73L593.966 364.565C592.866 365.404 591.661 365.907 591.83 367.106Z" fill="#2F2E41"/>
<path d="M598.18 191.582C598.18 198.952 590.604 204.928 581.258 204.928C571.913 204.928 564.337 198.952 564.337 191.582C564.337 184.211 571.913 178.236 581.258 178.236C590.604 178.236 598.18 184.211 598.18 191.582Z" fill="#A0616A"/>
<path d="M596.585 268.531C596.585 268.531 534.283 265.75 530.757 271.313C527.23 276.875 549.822 353.286 549.822 353.286L569.977 349.954L560.145 296.345C560.145 296.345 612.134 307.205 619.187 294.225C626.24 281.245 624.21 276.412 624.21 276.412L596.585 268.531Z" fill="#2F2E41"/>
<path d="M612.548 259.194C612.548 259.194 551.532 269.51 549.997 275.61C548.462 281.711 595.877 350.686 595.877 350.686L614.197 343.268L586.734 293.62C586.734 293.62 640.514 293.245 642.962 279.256C645.411 265.267 641.831 261.03 641.831 261.03L612.548 259.194Z" fill="#2F2E41"/>
<path d="M619.508 206.877H590.194L570.137 232.837C570.137 232.837 565.434 249.613 570.137 251.423C574.839 253.233 574.839 272.703 574.839 272.703L624.21 276.412C624.21 276.412 631.263 218.002 628.912 212.44C626.561 206.877 619.508 206.877 619.508 206.877Z" fill="#60A5FA"/>
<path d="M573.075 224.029L570.136 251.423L537.082 240.358L529.193 237.229C527.648 235.64 525.642 234.366 523.345 233.513C517.631 231.317 511.566 231.861 509.794 234.728C508.023 237.594 511.217 241.698 516.929 243.893C519.196 244.795 521.705 245.255 524.245 245.236L547.328 255.576L547.355 255.536L547.457 255.68L583.655 267.604L591.984 231.642L573.075 224.029Z" fill="#A0616A"/>
<path d="M569.549 193.433C569.549 193.433 551.916 195.288 558.969 183.235C558.969 183.235 557.894 176.701 563.134 176.259C568.373 175.818 575.426 168.401 575.426 168.401C575.426 168.401 591.597 161.911 599.969 168.401C608.341 174.891 633.026 212.903 633.026 212.903L616.569 226.81C616.569 226.81 606.675 206.296 595.165 208.673C583.655 211.049 573.075 218.134 573.075 218.134C573.075 218.134 561.394 213.523 566.647 209.505C571.9 205.486 569.549 193.433 569.549 193.433Z" fill="#2F2E41"/>
<path d="M593.059 213.83C593.059 213.83 584.83 205.486 578.953 211.976C573.075 218.466 568.373 226.81 568.373 226.81L591.883 233.3L593.059 213.83Z" fill="#60A5FA"/>
<path d="M682.324 368.226L655.009 299.752L655.013 299.752H655.076L654.966 299.64L654.963 299.637L653.018 294.76L653.019 294.76C655.983 292.745 658 289.867 658.402 286.553L645.917 232.391C646.776 225.279 639.863 219.062 630.806 218.807L602.634 218.751C594.626 218.527 587.689 223.091 586.522 229.345L585.9 232.665L577.269 278.975C576.953 280.641 577.079 282.282 577.576 283.818L571.365 284.458L569.481 284.657L562.032 285.422L562.008 285.428L561.078 285.521H560.069V305.415H560.132V369.002C560.132 369.413 560.558 369.748 561.078 369.748C561.606 369.748 562.032 369.413 562.032 369.002V305.415H573.083L584.11 368.928C584.181 369.301 584.583 369.574 585.056 369.574C585.096 369.574 585.143 369.574 585.182 369.568C585.703 369.512 586.065 369.133 585.994 368.722L575.006 305.415H628.031C633.296 305.415 638.175 304.098 642.148 301.841L663.171 368.811C663.281 369.15 663.667 369.375 664.091 369.375C664.168 369.375 664.247 369.368 664.326 369.352C664.834 369.25 665.141 368.842 665.012 368.442L643.785 300.824C644.067 300.639 644.349 300.441 644.616 300.237L653.056 299.845L680.513 368.676C680.64 368.995 681.014 369.2 681.418 369.2C681.512 369.2 681.608 369.189 681.703 369.165C682.203 369.041 682.481 368.621 682.324 368.226ZM651.214 295.823C651.285 295.792 651.348 295.754 651.411 295.723L651.614 296.231L651.214 295.823Z" fill="white"/>
<path d="M146.359 252.16L164.742 242.94L172.216 246.495L146.359 269.928V252.16Z" fill="#FFB6B6"/>
<path d="M121.22 216.471C121.22 216.471 109.01 218.737 114.756 231.767C120.502 244.796 139.176 271.987 144.922 270.287C150.668 268.588 151.387 251.593 151.387 251.593C151.387 251.593 150.668 252.16 147.795 249.894C144.922 247.628 144.922 248.663 144.922 246.163C144.922 243.663 142.573 241.809 142.573 241.809L139.895 237.431C139.895 237.431 139.895 217.038 129.121 215.905C118.347 214.772 121.22 216.471 121.22 216.471Z" fill="#60A5FA"/>
<path d="M178.266 245.886C183.035 242.125 184.513 237.193 181.568 234.87C178.623 232.548 172.369 233.713 167.601 237.474C162.833 241.235 161.355 246.167 164.3 248.49C167.245 250.812 173.498 249.647 178.266 245.886Z" fill="#FFB6B6"/>
<path d="M73.6618 291.531L86.2056 307.906L159.305 304.494L139.841 284.708L73.6618 291.531Z" fill="white"/>
<path d="M95.5042 368.119C95.0784 368.119 94.7075 367.871 94.6482 367.529L72.8047 241.705C72.7399 241.332 73.0711 240.988 73.5444 240.937C74.0175 240.883 74.4538 241.146 74.5189 241.52L96.3623 367.344C96.4271 367.718 96.096 368.062 95.6227 368.113C95.5828 368.117 95.5433 368.119 95.5042 368.119Z" fill="white"/>
<path d="M73.6618 368.279C73.184 368.279 72.7967 367.973 72.7967 367.597V241.637C72.7967 241.26 73.184 240.955 73.6618 240.955C74.1395 240.955 74.5269 241.26 74.5269 241.637V367.597C74.5269 367.973 74.1395 368.279 73.6618 368.279Z" fill="white"/>
<path d="M183.311 367.778C182.944 367.778 182.602 367.592 182.486 367.3L130.797 237.724C130.654 237.364 130.907 236.981 131.363 236.868C131.819 236.755 132.305 236.955 132.448 237.314L184.137 366.891C184.28 367.25 184.027 367.633 183.571 367.747C183.485 367.768 183.397 367.778 183.311 367.778Z" fill="white"/>
<path d="M167.523 367.938C167.137 367.938 166.785 367.733 166.685 367.424L130.784 253.063C130.666 252.698 130.946 252.326 131.409 252.234C131.874 252.141 132.343 252.361 132.461 252.727L168.362 367.087C168.48 367.452 168.2 367.824 167.737 367.917C167.665 367.931 167.594 367.938 167.523 367.938Z" fill="white"/>
<path d="M73.6618 243.643L133.569 242.917L144.599 292.554H74.5269L73.6618 243.643Z" fill="white"/>
<path d="M165.724 316.632L150.627 337.596L168.156 340.64L175.465 325.729L165.724 316.632Z" fill="#FFB6B6"/>
<path d="M156.049 333.638C156.049 333.638 155.463 330.219 152.014 331.304C148.565 332.389 138.611 336.421 138.611 336.421C138.611 336.421 164.573 369.693 169.5 368.143C174.427 366.593 168.529 357.188 168.529 357.188L169.831 340.564L156.049 333.638Z" fill="#2F2E41"/>
<path d="M98.9549 275.952C98.9549 275.952 93.5681 295.496 110.088 302.294C126.607 309.091 182.989 292.38 182.989 292.38L157.133 322.937L175.089 328.635C175.089 328.635 216.028 286.149 213.155 279.351C210.282 272.553 190.89 271.987 190.89 271.987L147.077 273.686L135.585 270.854L98.9549 275.952Z" fill="#2F2E41"/>
<path d="M143.389 325.936L119.654 341.13L134.577 348.996L148.264 337.205L143.389 325.936Z" fill="#FFB6B6"/>
<path d="M126.531 339C126.531 339 127.562 335.647 123.849 335.668C120.135 335.689 109.004 336.587 109.004 336.587C109.004 336.587 117.836 375.03 123.14 375C128.444 374.97 127.29 364.517 127.29 364.517L136.172 349.406L126.531 339Z" fill="#2F2E41"/>
<path d="M99.9648 268.883C99.9648 268.883 85.9305 285.541 98.1813 296.613C110.432 307.686 170.659 308.302 170.659 308.302L132.477 329.343L146.573 339.804C146.573 339.804 204.308 311.98 204.768 304.824C205.228 297.668 187.427 291.574 187.427 291.574L145.833 280.583L136.436 274.647L99.9648 268.883Z" fill="#2F2E41"/>
<path d="M136.018 230.299C136.018 230.299 122.371 226.334 115.907 226.334C115.289 226.334 114.679 226.391 114.068 226.493C109.931 227.184 106.125 229.988 104.3 231.517C103.589 232.118 103.18 232.52 103.18 232.52C103.18 232.52 103.223 232.129 103.309 231.444C103.733 227.841 105.299 216.018 108.107 208.45C109.112 205.748 110.269 203.59 111.598 202.542C114.693 200.095 116.123 197.16 116.783 194.974C117.344 193.098 117.344 191.779 117.344 191.779L112.108 190L111.138 185.003C110.966 185.593 110.168 186.743 107.489 188.946C107.259 189.133 107.008 189.292 106.742 189.428C102.878 191.342 94.9991 188.011 90.7542 185.915C92.5211 181.072 95.7245 176.642 101.542 175.917C115.189 174.218 115.189 167.986 123.808 174.784C124.519 175.345 125.237 175.883 125.955 176.404C128.713 180.562 129.719 186.136 130.078 190.011C130.337 192.725 130.272 194.611 130.272 194.611C130.272 194.611 133.863 211.605 139.609 215.004C145.355 218.403 136.018 230.299 136.018 230.299Z" fill="#2F2E41"/>
<path d="M109.443 203.108L99.7382 214.335L121.653 218.97V203.108H109.443Z" fill="#FFB6B6"/>
<path opacity="0.1" d="M109.443 203.108L99.7382 214.335L121.653 218.97V203.108H109.443Z" fill="black"/>
<path d="M123.016 213.922L102.187 207.125C102.187 207.125 74.1755 216.755 76.3303 235.449C78.485 254.143 98.5958 286.432 98.5958 286.432L138.817 272.837L134.508 236.582L123.016 213.922Z" fill="#60A5FA"/>
<path d="M114.085 208.121C124.234 208.121 132.462 201.632 132.462 193.627C132.462 185.623 124.234 179.134 114.085 179.134C103.936 179.134 95.7092 185.623 95.7092 193.627C95.7092 201.632 103.936 208.121 114.085 208.121Z" fill="#FFB6B6"/>
<path d="M138.891 188.38C135.3 191.212 132.427 194.044 132.427 194.044L130.99 189.513C130.99 189.513 130.66 189.705 130.078 190.011C127.801 191.235 121.689 194.311 116.783 194.974C114.6 195.268 112.661 195.081 111.397 194.044C108.718 191.841 107.92 190.691 107.748 190.102L106.778 195.098L101.542 196.877C101.542 196.877 101.542 203.097 107.288 207.64C107.568 207.861 107.841 208.133 108.107 208.45C110.851 211.713 112.819 219.7 114.068 226.493C115.174 232.531 115.706 237.618 115.706 237.618C115.706 237.618 110.269 232.248 104.3 231.517C103.97 231.478 103.64 231.449 103.309 231.444C103.201 231.432 103.086 231.432 102.979 231.432C96.5146 231.432 82.868 235.398 82.868 235.398C82.868 235.398 73.5308 223.502 79.2768 220.103C85.0227 216.704 88.6139 199.709 88.6139 199.709C88.6139 199.709 88.3769 192.436 90.7543 185.915C92.5211 181.072 95.7245 176.642 101.542 175.917C115.189 174.218 115.189 167.986 123.808 174.784C124.519 175.345 125.237 175.883 125.955 176.404C133.985 182.228 142.188 185.779 138.891 188.38Z" fill="#2F2E41"/>
<path d="M58.2943 264.422H51.4697V370.73H58.2943V264.422Z" fill="#3F3D56"/>
<path d="M223.792 264.422H216.967V370.73H223.792V264.422Z" fill="#3F3D56"/>
<path d="M135.571 219.843H179.785V254.503H135.571V219.843Z" fill="white" stroke="#60A5FA"/>
<path d="M109.01 257.258L127.393 248.038L134.867 251.593L109.01 275.027V257.258Z" fill="#FFB6B6"/>
<path d="M83.8718 221.57C83.8718 221.57 71.6617 223.836 77.4076 236.865C83.1536 249.894 101.828 277.085 107.574 275.386C113.32 273.686 114.038 256.692 114.038 256.692C114.038 256.692 113.32 257.258 110.447 254.992C107.574 252.726 107.574 253.761 107.574 251.261C107.574 248.761 105.224 246.908 105.224 246.908L102.546 242.53C102.546 242.53 102.546 222.136 91.7725 221.003C80.9989 219.87 83.8718 221.57 83.8718 221.57Z" fill="#60A5FA"/>
<path d="M140.918 250.984C145.686 247.223 147.164 242.292 144.219 239.969C141.274 237.646 135.021 238.812 130.253 242.572C125.484 246.333 124.006 251.265 126.951 253.588C129.897 255.911 136.15 254.745 140.918 250.984Z" fill="#FFB6B6"/>
<path d="M237.441 260.385H30.9957V272.496H237.441V260.385Z" fill="#3F3D56"/>
<path d="M447.188 163.498H416.699C414.282 163.498 412.322 165.043 412.322 166.949V176.867C412.322 178.773 414.282 180.319 416.699 180.319H447.188C449.605 180.319 451.564 178.773 451.564 176.867V166.949C451.564 165.043 449.605 163.498 447.188 163.498Z" fill="#3F3D56"/>
<path d="M511.169 173.415H480.68C478.263 173.415 476.303 174.961 476.303 176.867V176.867C476.303 178.773 478.263 180.319 480.68 180.319H511.169C513.586 180.319 515.545 178.773 515.545 176.867C515.545 174.961 513.586 173.415 511.169 173.415Z" fill="#60A5FA"/>
</g>
<defs>
<clipPath id="clip0_0_1">
<rect width="726" height="375" fill="white"/>
</clipPath>
</defs>
</svg>
